<?xml version="1.0" encoding="utf-8"?>
<!-- Generator: Adobe Illustrator 18.1.0, SVG Export Plug-In . SVG Version: 6.00 Build 0)  -->
<!DOCTYPE svg PUBLIC "-//W3C//DTD SVG 1.1//EN" "http://www.w3.org/Graphics/SVG/1.1/DTD/svg11.dtd">
<svg version="1.1" id="Layer_1" xmlns="http://www.w3.org/2000/svg" xmlns:xlink="http://www.w3.org/1999/xlink" x="0px" y="0px"
	 viewBox="0 0 226.5 289.1" enable-background="new 0 0 226.5 289.1" xml:space="preserve">
<g opacity="0.8">
	<g>
		<g>
			<path fill="#EDE7DA" d="M9.4,281.1L6,288.7H0l14.8-33.6h6l14.8,33.6h-6l-3.4-7.6H9.4z M23.9,275.8L17.8,262l-6.1,13.8H23.9z"/>
		</g>
		<g>
			<path fill="#EDE7DA" d="M57.6,259.5c-1.6,0-3,0.3-4.1,1s-1.6,1.7-1.6,3c0,1.4,0.5,2.4,1.6,3.1c1.1,0.7,3.3,1.5,6.7,2.3
				c3.4,0.8,6,2,7.8,3.5c1.7,1.5,2.6,3.7,2.6,6.6c0,2.9-1.1,5.3-3.3,7.1s-5.1,2.7-8.7,2.7c-5.2,0-9.9-1.8-14-5.4l3.6-4.3
				c3.4,2.9,6.9,4.4,10.6,4.4c1.8,0,3.3-0.4,4.3-1.2c1.1-0.8,1.6-1.8,1.6-3.1c0-1.3-0.5-2.3-1.5-3c-1-0.7-2.7-1.4-5.2-2
				s-4.3-1.1-5.6-1.6c-1.3-0.5-2.4-1.1-3.4-1.9c-2-1.5-3-3.8-3-6.9c0-3.1,1.1-5.5,3.4-7.2c2.3-1.7,5-2.5,8.4-2.5
				c2.1,0,4.3,0.4,6.4,1.1c2.1,0.7,3.9,1.7,5.5,3l-3,4.3c-1-0.9-2.3-1.6-4-2.2C60.9,259.8,59.3,259.5,57.6,259.5z"/>
		</g>
		<g>
			<path fill="#EDE7DA" d="M84.9,288.7v-33.6h5.7v14.5h16.7v-14.5h5.7v33.6h-5.7V275H90.6v13.7H84.9z"/>
		</g>
		<g>
			<path fill="#EDE7DA" d="M129.4,288.7v-33.6h5.7v28.2h15.3v5.4H129.4z"/>
		</g>
		<g>
			<path fill="#EDE7DA" d="M187.3,255.1v5.3h-17.9v8.9h16.1v5h-16.1v9h18.5v5.3h-24.1v-33.6H187.3z"/>
		</g>
		<g>
			<path fill="#EDE7DA" d="M225.9,255.1v5.3H208v8.9h16.1v5H208v9h18.5v5.3h-24.1v-33.6H225.9z"/>
		</g>
	</g>
	<g>
		<circle fill="#EDE7DA" cx="128.3" cy="156.6" r="27.6"/>
	</g>
	<g>
		<path fill="#EDE7DA" d="M34.9,205.5"/>
	</g>
	<g>
		<path fill="#EDE7DA" d="M36.4,222.5l91.2-194.3l91.2,194.3h-13.3L127.6,56.6L49.7,222.5H36.4z M127.6,27.4L114.6,0L10.4,222.5
			h13.3l90.9-194.2l6.4,13.3"/>
	</g>
</g>
</svg>
