<?xml version="1.0" encoding="utf-8"?>
<!-- Generator: Adobe Illustrator 18.1.0, SVG Export Plug-In . SVG Version: 6.00 Build 0)  -->
<!DOCTYPE svg PUBLIC "-//W3C//DTD SVG 1.1//EN" "http://www.w3.org/Graphics/SVG/1.1/DTD/svg11.dtd">
<svg version="1.1" id="Layer_1" xmlns="http://www.w3.org/2000/svg" xmlns:xlink="http://www.w3.org/1999/xlink" x="0px" y="0px"
	 viewBox="0 0 91.9 98.1" enable-background="new 0 0 91.9 98.1" xml:space="preserve">
<g display="none">
	<g display="inline">
		<path fill="#EDE7DA" d="M-1,280.7l-3.4,7.6h-6l14.8-33.6h6l14.8,33.6h-6l-3.4-7.6H-1z M13.5,275.4l-6.1-13.8l-6.1,13.8H13.5z"/>
	</g>
	<g display="inline">
		<path fill="#EDE7DA" d="M47.2,259.2c-1.6,0-3,0.3-4.1,1s-1.6,1.7-1.6,3c0,1.4,0.5,2.4,1.6,3.1c1.1,0.7,3.3,1.5,6.7,2.3
			c3.4,0.8,6,2,7.8,3.5c1.7,1.5,2.6,3.7,2.6,6.6c0,2.9-1.1,5.3-3.3,7.1s-5.1,2.7-8.7,2.7c-5.2,0-9.9-1.8-14-5.4l3.6-4.3
			c3.4,2.9,6.9,4.4,10.6,4.4c1.8,0,3.3-0.4,4.3-1.2c1.1-0.8,1.6-1.8,1.6-3.1c0-1.3-0.5-2.3-1.5-3c-1-0.7-2.7-1.4-5.2-2
			s-4.3-1.1-5.6-1.6c-1.3-0.5-2.4-1.1-3.4-1.9c-2-1.5-3-3.8-3-6.9c0-3.1,1.1-5.5,3.4-7.2c2.3-1.7,5-2.5,8.4-2.5
			c2.1,0,4.3,0.4,6.4,1.1c2.1,0.7,3.9,1.7,5.5,3l-3,4.3c-1-0.9-2.3-1.6-4-2.2C50.5,259.5,48.9,259.2,47.2,259.2z"/>
	</g>
	<g display="inline">
		<path fill="#EDE7DA" d="M74.5,288.3v-33.6h5.7v14.5h16.7v-14.5h5.7v33.6h-5.7v-13.7H80.2v13.7H74.5z"/>
	</g>
	<g display="inline">
		<path fill="#EDE7DA" d="M119,288.3v-33.6h5.7v28.2H140v5.4H119z"/>
	</g>
	<g display="inline">
		<path fill="#EDE7DA" d="M176.9,254.7v5.3H159v8.9h16.1v5H159v9h18.5v5.3h-24.1v-33.6H176.9z"/>
	</g>
	<g display="inline">
		<path fill="#EDE7DA" d="M215.5,254.7v5.3h-17.9v8.9h16.1v5h-16.1v9h18.5v5.3H192v-33.6H215.5z"/>
	</g>
</g>
<g>
	<circle fill="#EDE7DA" cx="52" cy="68.7" r="12.2"/>
</g>
<g>
	<path fill="#EDE7DA" d="M10.8,90.2"/>
</g>
<path fill="#EDE7DA" d="M51.7,12.1"/>
<path fill="#EDE7DA" d="M48.8,18.2"/>
<polygon fill="#EDE7DA" points="46,0 0,98.1 5.9,98.1 46,12.3 48.8,18.5 11.4,98.1 17.3,98.1 51.7,25 86.1,98.1 91.9,98.1 "/>
</svg>
